<?xml version="1.0" encoding="UTF-8"?>
<!--Generator: Apple Native CoreSVG 232.5-->
<!DOCTYPE svg
PUBLIC "-//W3C//DTD SVG 1.1//EN"
       "http://www.w3.org/Graphics/SVG/1.1/DTD/svg11.dtd">
<svg version="1.1" xmlns="http://www.w3.org/2000/svg" xmlns:xlink="http://www.w3.org/1999/xlink" width="14.3086" height="10.0137">
 <g>
  <rect height="10.0137" opacity="0" width="14.3086" x="0" y="0"/>
  <path d="M2.39648 8.19727C2.05078 8.19727 1.82227 7.96289 1.82227 7.63477L1.82227 6.55078C1.82227 6.2168 2.05078 5.98828 2.39648 5.98828L3.83203 5.98828C4.17773 5.98828 4.40625 6.2168 4.40625 6.55078L4.40625 7.63477C4.40625 7.96289 4.17773 8.19727 3.83203 8.19727ZM0 3.69727L0 2.36719L13.7695 2.36719L13.7695 3.69727ZM1.83984 10.0137L11.9297 10.0137C13.1602 10.0137 13.7695 9.41016 13.7695 8.20312L13.7695 1.82227C13.7695 0.615234 13.1602 0.00585938 11.9297 0.00585938L1.83984 0.00585938C0.615234 0.00585938 0 0.615234 0 1.82227L0 8.20312C0 9.41016 0.615234 10.0137 1.83984 10.0137Z" fill="#ffffff" fill-opacity="0.85"/>
 </g>
</svg>
